<!DOCTYPE svg PUBLIC "-//W3C//DTD SVG 20010904//EN" "http://www.w3.org/TR/2001/REC-SVG-20010904/DTD/svg10.dtd">
<svg version="1.0" xmlns="http://www.w3.org/2000/svg" width="338px" height="205px" viewBox="0 0 3380 2050" preserveAspectRatio="xMidYMid meet">
<g id="layer101" fill="#fe0000" stroke="none">
 <path d="M0 1025 l0 -1025 1690 0 1690 0 0 1025 0 1025 -1690 0 -1690 0 0 -1025z"/>
 </g>
<g id="layer102" fill="#fafafa" stroke="none">
 <path d="M1515 1316 c-32 -14 -85 -69 -85 -88 0 -6 9 -3 20 7 27 24 128 32 173 14 54 -21 114 -67 136 -103 27 -43 27 -46 -9 -46 -96 0 -132 -80 -66 -146 19 -19 44 -34 55 -34 27 0 68 40 77 74 l6 26 459 0 c484 0 488 0 441 -43 -17 -15 -59 -17 -396 -17 -422 0 -404 3 -371 -71 25 -55 122 -143 182 -164 26 -9 83 -19 126 -22 l78 -6 -3 33 -3 34 -86 0 c-75 1 -93 5 -144 31 -60 31 -102 75 -91 94 5 8 111 11 349 11 314 0 345 2 384 19 67 31 84 95 39 148 l-24 28 -469 3 -468 3 -18 44 c-26 63 -93 134 -152 161 -56 27 -96 29 -140 10z m243 -297 c4 -19 -23 -49 -44 -49 -17 0 -19 41 -2 58 16 16 42 11 46 -9z"/>
 <path d="M1066 1211 c-15 -16 -15 -19 -1 -31 21 -18 61 16 44 37 -15 17 -23 17 -43 -6z"/>
 <path d="M1155 1210 c-17 -18 -17 -22 -4 -36 14 -13 17 -12 34 6 17 18 17 22 4 36 -14 13 -17 12 -34 -6z"/>
 <path d="M1233 1100 c-17 -7 -23 -18 -23 -40 0 -25 -3 -30 -17 -26 -53 15 -294 38 -398 37 -174 0 -254 -14 -282 -46 -29 -33 -29 -49 0 -41 82 22 214 29 374 17 155 -10 342 -33 387 -47 16 -5 17 -2 11 25 -9 42 8 61 54 61 41 0 81 -23 81 -47 0 -9 -9 -30 -20 -48 -22 -36 -20 -54 10 -73 17 -10 21 -7 39 32 45 102 33 151 -41 181 -51 21 -144 29 -175 15z"/>
 <path d="M770 865 c-10 -12 -10 -19 -2 -27 15 -15 48 14 38 31 -10 15 -21 14 -36 -4z"/>
 <path d="M856 861 c-14 -15 -14 -20 -3 -30 11 -8 18 -7 31 8 14 15 14 20 3 30 -11 8 -18 7 -31 -8z"/>
 </g>

</svg>